<mxfile host="65bd71144e">
    <diagram id="wH4HHMxxQ1flSeS1hUhL" name="Page-1">
        <mxGraphModel dx="175" dy="1546" grid="1" gridSize="10" guides="1" tooltips="1" connect="1" arrows="1" fold="1" page="1" pageScale="1" pageWidth="850" pageHeight="1100" background="#ffffff" math="0" shadow="0">
            <root>
                <mxCell id="0"/>
                <mxCell id="1" parent="0"/>
                <mxCell id="2" value="Greenhouse Class" style="swimlane;rounded=0;whiteSpace=wrap;html=1;" parent="1" vertex="1">
                    <mxGeometry x="100" y="50" width="400" height="560" as="geometry"/>
                </mxCell>
                <mxCell id="3" value="Attributes:&#xa;- target_temperature&#xa;- heater_state&#xa;- aircon_state&#xa;- inside_temperatureSHT&#xa;- outside_temperature&#xa;- MQTT Client (client)" style="text;whiteSpace=wrap;html=1;" parent="2" vertex="1">
                    <mxGeometry y="30" width="400" height="180" as="geometry"/>
                </mxCell>
                <mxCell id="4" value="Methods:&#xa;- predict_system()&#xa;- update_model()&#xa;- publish_digital_twin()&#xa;- process_received_message()" style="text;whiteSpace=wrap;html=1;" parent="2" vertex="1">
                    <mxGeometry y="210" width="400" height="160" as="geometry"/>
                </mxCell>
                <mxCell id="5" value="Block Diagram: Greenhouse Class Behavior" style="rounded=0;whiteSpace=wrap;html=1;verticalAlign=top;" parent="1" vertex="1">
                    <mxGeometry x="550" y="-40" width="600" height="760" as="geometry"/>
                </mxCell>
                <mxCell id="6" value="Initialize Greenhouse&#xa;- Set attributes (target temp, heater, aircon, etc.)&#xa;- Fetch outside temperature" style="rounded=1;whiteSpace=wrap;html=1;" parent="5" vertex="1">
                    <mxGeometry x="50" y="50" width="240" height="80" as="geometry"/>
                </mxCell>
                <mxCell id="7" value="predict_system()&#xa;- Simulate internal conditions&#xa;- Adjust heater/aircon based on target" style="rounded=1;whiteSpace=wrap;html=1;" parent="5" vertex="1">
                    <mxGeometry x="320" y="140" width="240" height="80" as="geometry"/>
                </mxCell>
                <mxCell id="8" style="edgeStyle=orthogonalEdgeStyle;rounded=1;" parent="5" source="6" target="7" edge="1">
                    <mxGeometry relative="1" as="geometry"/>
                </mxCell>
                <mxCell id="9" value="update_model()&#xa;- Update conditions (Temp, Humidity, etc.)&#xa;- Correct based on actual sensor data" style="rounded=1;whiteSpace=wrap;html=1;" parent="5" vertex="1">
                    <mxGeometry x="60" y="260" width="240" height="80" as="geometry"/>
                </mxCell>
                <mxCell id="10" style="edgeStyle=orthogonalEdgeStyle;rounded=1;" parent="5" source="7" target="9" edge="1">
                    <mxGeometry relative="1" as="geometry"/>
                </mxCell>
                <mxCell id="11" value="publish_digital_twin()&#xa;- Publish internal conditions&#xa;- Send heater state" style="rounded=1;whiteSpace=wrap;html=1;" parent="5" vertex="1">
                    <mxGeometry x="320" y="260" width="240" height="80" as="geometry"/>
                </mxCell>
                <mxCell id="12" style="edgeStyle=orthogonalEdgeStyle;rounded=1;" parent="5" source="9" target="11" edge="1">
                    <mxGeometry relative="1" as="geometry"/>
                </mxCell>
                <mxCell id="13" value="process_received_message()&#xa;- Handle incoming messages&#xa;- Update model or control system" style="rounded=1;whiteSpace=wrap;html=1;" parent="5" vertex="1">
                    <mxGeometry x="320" y="440" width="240" height="80" as="geometry"/>
                </mxCell>
                <mxCell id="14" style="edgeStyle=orthogonalEdgeStyle;rounded=1;" parent="5" source="11" target="13" edge="1">
                    <mxGeometry relative="1" as="geometry"/>
                </mxCell>
            </root>
        </mxGraphModel>
    </diagram>
</mxfile>